<svg width="12" height="9" viewBox="0 0 12 9" fill="none" xmlns="http://www.w3.org/2000/svg">
<path fill-rule="evenodd" clip-rule="evenodd" d="M5.99575 1.52088C7.93552 1.52088 9.70336 2.23545 11.0589 3.40718L12 2.36811C10.3946 0.974466 8.29789 0 5.99575 0C3.69711 0 1.6034 0.971507 0 2.36071L0.939148 3.40126C2.29364 2.23299 4.05848 1.52088 5.99575 1.52088Z" fill="white"/>
<path fill-rule="evenodd" clip-rule="evenodd" d="M5.99575 4.5202C7.15832 4.5202 8.22042 4.94233 9.03961 5.63768L10.0352 4.53795C8.95165 3.60787 7.54217 3.00031 5.99575 3.00031C4.45233 3.00031 3.04386 3.60639 1.96127 4.53351L2.95539 5.63472C3.77409 4.94085 4.83469 4.5202 5.99575 4.5202Z" fill="white"/>
<path fill-rule="evenodd" clip-rule="evenodd" d="M8.04348 6.73743C7.48919 6.27732 6.77546 5.95874 5.99525 5.95874C5.21654 5.95874 4.50381 6.27682 3.94952 6.73496L5.99525 9L8.04348 6.73743Z" fill="white"/>
</svg>
